# xmcd
#
# Track frame offsets:
# 150
# 17247
# 30907
# 46879
# 60097
# 77322
# 104214
# 133186
# 148391
# 165754
# 183866
# 198506
# 230180
# 246617
# 260007
# 274650
# 289787
# 305794
#
# Disc length: 4410 seconds
#
#
# Revision: 0
# Processed by: cddbd v1.5.2PL0 Copyright (c) Steve Scherf et al.
# Submitted via: FreeRIP 2.944 
#
DISCID=07113812
DTITLE=PLACIDO DOMINGO - MEXICO LINDO Y QUERIDO
DYEAR=1900
DGENRE=Folklore
TTITLE0=Yo soy Mexicano
TTITLE1=Cocula
TTITLE2=Paloma Querida
TTITLE3=Cuando Sale la Luna
TTITLE4=Mia
TTITLE5=Solamente Una Vez/Veracruz/ Noche de Ronda
TTITLE6=Sabra Dios/Un Minuto de Amor/Sabor a Mi
TTITLE7=Ella
TTITLE8=La Malagueña
TTITLE9=Pa' Todo el Año
TTITLE10=De Que Manera Te Olvido
TTITLE11=Fallaste Corazon/La Que Se Fue/Gritenme Piedras del Campo
TTITLE12=Tequila Con Limon
TTITLE13=La Feria de las Flores
TTITLE14=El Jinete
TTITLE15=¡Hay Jalisco No Te Rajes
TTITLE16=Si Nos Dejan
TTITLE17=Volver, Volver/El Rey
EXTD=
EXTT0=
EXTT1=
EXTT2=
EXTT3=
EXTT4=
EXTT5=
EXTT6=
EXTT7=
EXTT8=
EXTT9=
EXTT10=
EXTT11=
EXTT12=
EXTT13=
EXTT14=
EXTT15=
EXTT16=
EXTT17=
PLAYORDER=
